<svg width="34" height="34" viewBox="0 0 34 34" fill="none" xmlns="http://www.w3.org/2000/svg">
<rect width="34" height="34" rx="9" fill="#15171C"/>
<g clip-path="url(#clip0_3_50)">
<path d="M17 22.25L22.25 17L24.5 19.25L19.25 24.5L17 22.25Z" stroke="white" stroke-width="2" stroke-linecap="round" stroke-linejoin="round"/>
<path d="M21.5 17.75L20.375 12.125L9.5 9.5L12.125 20.375L17.75 21.5L21.5 17.75Z" stroke="white" stroke-width="2" stroke-linecap="round" stroke-linejoin="round"/>
<path d="M9.5 9.5L15.1895 15.1895" stroke="white" stroke-width="2" stroke-linecap="round" stroke-linejoin="round"/>
<path d="M16.25 17.75C17.0784 17.75 17.75 17.0784 17.75 16.25C17.75 15.4216 17.0784 14.75 16.25 14.75C15.4216 14.75 14.75 15.4216 14.75 16.25C14.75 17.0784 15.4216 17.75 16.25 17.75Z" stroke="white" stroke-width="2" stroke-linecap="round" stroke-linejoin="round"/>
</g>
<defs>
<clipPath id="clip0_3_50">
<rect width="18" height="18" fill="white" transform="translate(8 8)"/>
</clipPath>
</defs>
</svg>
